<?xml version="1.0" encoding="UTF-8"?>
<svg xmlns="http://www.w3.org/2000/svg" xmlns:xlink="http://www.w3.org/1999/xlink" width="250px" height="245px" viewBox="0 0 249 245" version="1.1">
<g id="surface1">
<path style=" stroke:none;fill-rule:nonzero;fill:rgb(57.647061%,83.529413%,0%);fill-opacity:1;" d="M 58.648438 149.246094 L 13.832031 149.246094 C 13.84375 149.46875 13.847656 149.6875 13.859375 149.90625 C 13.875 150.328125 13.90625 150.75 13.933594 151.171875 C 13.945312 151.351562 13.953125 151.535156 13.96875 151.714844 C 14 152.203125 14.042969 152.691406 14.089844 153.175781 C 14.101562 153.289062 14.109375 153.398438 14.121094 153.503906 C 14.171875 154.046875 14.230469 154.589844 14.292969 155.125 C 14.296875 155.175781 14.300781 155.230469 14.308594 155.28125 C 14.378906 155.859375 14.453125 156.441406 14.539062 157.019531 C 14.539062 157.027344 14.539062 157.035156 14.542969 157.042969 C 15.058594 160.632812 15.832031 164.183594 16.859375 167.664062 C 16.863281 167.679688 16.867188 167.691406 16.871094 167.707031 C 17.03125 168.257812 17.203125 168.804688 17.375 169.347656 C 17.386719 169.378906 17.398438 169.410156 17.40625 169.441406 C 17.414062 169.472656 17.425781 169.503906 17.4375 169.539062 C 17.597656 170.03125 17.761719 170.519531 17.929688 171.011719 C 17.972656 171.132812 18.015625 171.257812 18.0625 171.382812 C 18.210938 171.804688 18.363281 172.230469 18.523438 172.65625 C 18.597656 172.84375 18.667969 173.035156 18.738281 173.226562 C 18.875 173.582031 19.007812 173.929688 19.148438 174.277344 C 19.253906 174.542969 19.359375 174.808594 19.472656 175.070312 C 19.585938 175.34375 19.699219 175.613281 19.8125 175.890625 C 19.953125 176.226562 20.105469 176.558594 20.253906 176.890625 C 20.339844 177.089844 20.429688 177.285156 20.519531 177.484375 C 20.699219 177.886719 20.886719 178.285156 21.074219 178.683594 C 21.136719 178.8125 21.199219 178.941406 21.261719 179.066406 C 21.480469 179.523438 21.703125 179.976562 21.929688 180.429688 C 21.972656 180.496094 22 180.566406 22.039062 180.636719 C 22.292969 181.136719 22.554688 181.632812 22.824219 182.125 C 22.835938 182.148438 22.847656 182.167969 22.855469 182.195312 C 22.914062 182.296875 22.976562 182.398438 23.03125 182.5 L 61.308594 159.371094 L 61.449219 159.285156 C 59.941406 156.09375 59 152.695312 58.648438 149.246094 Z M 58.648438 149.246094 "/>
<path style=" stroke:none;fill-rule:nonzero;fill:rgb(30.19608%,35.294119%,19.215687%);fill-opacity:1;" d="M 69.664062 169.886719 L 69.558594 169.992188 L 37.988281 201.660156 C 38.152344 201.808594 38.3125 201.964844 38.480469 202.109375 C 38.773438 202.378906 39.074219 202.644531 39.371094 202.910156 C 39.527344 203.046875 39.675781 203.179688 39.832031 203.316406 C 40.1875 203.628906 40.550781 203.929688 40.910156 204.230469 C 41.011719 204.316406 41.105469 204.394531 41.203125 204.476562 C 41.660156 204.855469 42.125 205.226562 42.59375 205.59375 C 43.039062 205.949219 43.492188 206.292969 43.949219 206.640625 C 43.96875 206.652344 43.984375 206.664062 44 206.675781 C 45.90625 208.105469 47.875 209.441406 49.90625 210.683594 C 49.972656 210.726562 50.042969 210.765625 50.117188 210.8125 C 50.503906 211.042969 50.886719 211.273438 51.277344 211.5 L 51.992188 211.910156 C 52.21875 212.039062 52.441406 212.164062 52.667969 212.289062 C 53.078125 212.515625 53.488281 212.738281 53.902344 212.957031 C 53.960938 212.988281 54.015625 213.019531 54.078125 213.046875 C 55.222656 213.648438 56.390625 214.210938 57.566406 214.75 L 58.6875 212.019531 L 74.566406 173.34375 L 74.621094 173.203125 C 72.890625 172.269531 71.226562 171.167969 69.664062 169.886719 Z M 69.664062 169.886719 "/>
<path style=" stroke:none;fill-rule:nonzero;fill:rgb(41.960785%,64.313728%,22.745098%);fill-opacity:1;" d="M 66.378906 166.730469 C 66.039062 166.351562 65.710938 165.960938 65.390625 165.566406 C 65.109375 165.214844 64.835938 164.863281 64.574219 164.507812 C 64.269531 164.097656 63.976562 163.683594 63.695312 163.261719 C 63.417969 162.839844 63.140625 162.414062 62.878906 161.980469 L 24.554688 185.136719 C 25.144531 186.121094 25.757812 187.074219 26.382812 188.015625 C 26.40625 188.050781 26.425781 188.085938 26.445312 188.117188 C 26.453125 188.132812 26.460938 188.140625 26.46875 188.152344 C 26.488281 188.183594 26.507812 188.214844 26.527344 188.246094 C 26.53125 188.25 26.535156 188.253906 26.535156 188.257812 C 26.585938 188.332031 26.636719 188.40625 26.6875 188.484375 C 26.691406 188.484375 26.691406 188.492188 26.699219 188.496094 C 26.703125 188.503906 26.703125 188.5 26.703125 188.503906 C 27.367188 189.488281 28.050781 190.460938 28.757812 191.410156 C 28.769531 191.429688 28.789062 191.449219 28.800781 191.46875 C 28.820312 191.488281 28.832031 191.507812 28.847656 191.527344 C 29.15625 191.933594 29.460938 192.339844 29.777344 192.742188 C 29.820312 192.796875 29.859375 192.847656 29.90625 192.898438 C 30.230469 193.316406 30.558594 193.730469 30.898438 194.136719 C 30.976562 194.230469 31.058594 194.328125 31.136719 194.429688 C 31.441406 194.792969 31.742188 195.152344 32.050781 195.511719 C 32.1875 195.664062 32.320312 195.820312 32.457031 195.96875 C 32.71875 196.269531 32.980469 196.570312 33.25 196.867188 C 33.398438 197.03125 33.550781 197.195312 33.699219 197.355469 C 33.769531 197.433594 33.835938 197.503906 33.90625 197.582031 C 34.101562 197.792969 34.296875 198.007812 34.496094 198.214844 C 34.574219 198.300781 34.660156 198.382812 34.738281 198.464844 C 35.085938 198.832031 35.441406 199.195312 35.796875 199.554688 L 67.414062 167.84375 C 67.050781 167.480469 66.710938 167.105469 66.378906 166.730469 Z M 66.378906 166.730469 "/>
<path style=" stroke:none;fill-rule:nonzero;fill:rgb(30.19608%,35.294119%,19.215687%);fill-opacity:1;" d="M 108.28125 169.867188 C 107.933594 170.148438 107.582031 170.425781 107.226562 170.6875 L 107.300781 170.824219 L 130.351562 209.203125 C 131.421875 208.503906 132.476562 207.78125 133.507812 207.023438 C 135.738281 205.375 137.894531 203.585938 139.976562 201.660156 L 108.40625 169.992188 Z M 108.28125 169.867188 "/>
<path style=" stroke:none;fill-rule:nonzero;fill:rgb(57.647061%,83.529413%,0%);fill-opacity:1;" d="M 127.003906 209.519531 L 126.222656 208.214844 L 104.707031 172.390625 C 104.269531 172.652344 103.824219 172.890625 103.382812 173.128906 C 102.929688 173.375 102.480469 173.597656 102.023438 173.816406 C 97.886719 175.78125 93.414062 176.789062 88.933594 176.789062 C 85.996094 176.789062 83.066406 176.359375 80.226562 175.511719 C 79.742188 175.367188 79.269531 175.175781 78.796875 175.007812 C 78.316406 174.839844 77.832031 174.691406 77.363281 174.496094 L 61.496094 213.148438 L 60.875 214.660156 L 60.34375 215.960938 L 60.339844 215.964844 C 60.382812 215.980469 60.421875 215.996094 60.464844 216.011719 C 60.507812 216.03125 60.550781 216.042969 60.59375 216.066406 L 60.597656 216.066406 C 60.609375 216.070312 60.621094 216.074219 60.628906 216.074219 C 61.003906 216.230469 61.378906 216.363281 61.757812 216.511719 C 62.230469 216.695312 62.699219 216.882812 63.171875 217.054688 C 63.417969 217.144531 63.652344 217.246094 63.894531 217.332031 L 63.898438 217.332031 C 68.871094 219.09375 74.011719 220.328125 79.238281 221.015625 C 79.445312 221.039062 79.648438 221.070312 79.855469 221.097656 C 80.066406 221.121094 80.28125 221.144531 80.496094 221.167969 C 80.898438 221.214844 81.300781 221.257812 81.707031 221.300781 L 82.003906 221.324219 C 82.5 221.371094 82.996094 221.414062 83.488281 221.449219 C 83.660156 221.464844 83.828125 221.46875 83.996094 221.484375 C 84.429688 221.511719 84.863281 221.539062 85.296875 221.558594 C 85.5625 221.574219 85.828125 221.582031 86.09375 221.589844 C 86.4375 221.601562 86.78125 221.617188 87.128906 221.628906 C 87.621094 221.640625 88.125 221.644531 88.621094 221.644531 C 88.742188 221.644531 88.855469 221.648438 88.976562 221.652344 C 93.152344 221.652344 97.328125 221.300781 101.457031 220.605469 C 101.527344 220.59375 101.597656 220.582031 101.667969 220.574219 C 102.105469 220.5 102.539062 220.414062 102.976562 220.335938 C 103.226562 220.289062 103.476562 220.238281 103.722656 220.191406 C 103.976562 220.136719 104.234375 220.085938 104.488281 220.03125 C 104.914062 219.941406 105.335938 219.847656 105.765625 219.75 C 105.839844 219.730469 105.917969 219.71875 105.992188 219.695312 C 112.273438 218.230469 118.339844 215.957031 124.035156 212.949219 L 124.035156 212.945312 C 124.40625 212.75 124.773438 212.527344 125.144531 212.320312 C 125.585938 212.078125 126.023438 211.828125 126.464844 211.574219 C 126.769531 211.402344 127.078125 211.238281 127.378906 211.058594 C 127.382812 211.054688 127.386719 211.050781 127.390625 211.050781 C 127.398438 211.046875 127.402344 211.046875 127.40625 211.042969 L 127.410156 211.039062 L 127.355469 210.945312 L 127.410156 211.039062 C 127.414062 211.039062 127.417969 211.035156 127.421875 211.035156 C 127.425781 211.03125 127.429688 211.027344 127.433594 211.027344 C 127.453125 211.015625 127.46875 211.007812 127.484375 210.996094 C 127.582031 210.933594 127.679688 210.878906 127.78125 210.820312 Z M 69.679688 122.542969 C 70.03125 122.261719 70.382812 121.988281 70.738281 121.722656 L 70.660156 121.589844 L 47.609375 83.207031 C 46.539062 83.910156 45.484375 84.632812 44.449219 85.390625 C 42.222656 87.039062 40.0625 88.824219 37.988281 90.75 L 69.558594 122.417969 Z M 69.679688 122.542969 "/>
<path style=" stroke:none;fill-rule:nonzero;fill:rgb(30.19608%,35.294119%,19.215687%);fill-opacity:1;" d="M 35.796875 92.859375 C 35.4375 93.21875 35.097656 93.589844 34.746094 93.953125 C 34.398438 94.320312 34.042969 94.683594 33.699219 95.054688 C 31.394531 97.554688 29.261719 100.207031 27.3125 102.996094 C 27.21875 103.125 27.128906 103.257812 27.035156 103.390625 C 26.820312 103.707031 26.605469 104.023438 26.394531 104.339844 C 26.175781 104.671875 25.957031 105.007812 25.746094 105.339844 C 25.664062 105.460938 25.585938 105.585938 25.507812 105.707031 C 18.246094 117.132812 14.359375 130.09375 13.832031 143.160156 C 13.8125 143.671875 13.804688 144.179688 13.792969 144.683594 C 13.78125 145.191406 13.765625 145.699219 13.765625 146.203125 L 58.480469 146.203125 C 58.480469 145.699219 58.523438 145.191406 58.550781 144.683594 C 58.578125 144.175781 58.582031 143.667969 58.632812 143.160156 C 59.210938 137.324219 61.460938 131.621094 65.378906 126.832031 C 65.695312 126.441406 66.054688 126.074219 66.398438 125.699219 C 66.734375 125.324219 67.050781 124.933594 67.414062 124.570312 Z M 128.050781 81.726562 C 127.992188 81.6875 127.925781 81.652344 127.867188 81.613281 C 127.472656 81.371094 127.078125 81.140625 126.679688 80.90625 C 126.449219 80.773438 126.21875 80.644531 125.988281 80.511719 C 125.753906 80.382812 125.523438 80.25 125.289062 80.125 C 124.882812 79.902344 124.480469 79.683594 124.074219 79.464844 C 124.007812 79.433594 123.945312 79.398438 123.882812 79.363281 C 121.261719 77.988281 118.566406 76.78125 115.816406 75.730469 C 115.746094 75.699219 115.675781 75.671875 115.605469 75.648438 C 115.003906 75.421875 114.40625 75.199219 113.800781 74.988281 C 108.914062 73.277344 103.867188 72.078125 98.734375 71.402344 L 98.105469 71.316406 C 97.894531 71.289062 97.683594 71.269531 97.476562 71.246094 C 97.070312 71.199219 96.667969 71.152344 96.261719 71.113281 C 96.148438 71.101562 96.035156 71.097656 95.921875 71.082031 C 95.441406 71.039062 94.957031 70.996094 94.476562 70.960938 L 93.914062 70.925781 C 93.503906 70.902344 93.085938 70.871094 92.671875 70.851562 C 92.453125 70.839844 92.230469 70.832031 92.015625 70.828125 L 92.015625 115.785156 C 94.3125 116.023438 96.59375 116.515625 98.804688 117.265625 L 131.789062 84.183594 C 130.5625 83.328125 129.324219 82.5 128.050781 81.726562 Z M 128.050781 81.726562 "/>
<path style=" stroke:none;fill-rule:nonzero;fill:rgb(41.960785%,64.313728%,22.745098%);fill-opacity:1;" d="M 87.46875 70.789062 C 86.960938 70.800781 86.453125 70.800781 85.949219 70.820312 C 82.785156 70.949219 79.628906 71.273438 76.5 71.800781 C 76.429688 71.8125 76.363281 71.824219 76.292969 71.835938 C 75.855469 71.910156 75.417969 71.992188 74.980469 72.074219 C 74.734375 72.121094 74.484375 72.167969 74.238281 72.214844 C 73.980469 72.265625 73.722656 72.320312 73.46875 72.378906 C 73.042969 72.464844 72.617188 72.558594 72.195312 72.660156 C 72.117188 72.671875 72.039062 72.691406 71.964844 72.710938 C 65.6875 74.179688 59.625 76.449219 53.921875 79.457031 C 53.550781 79.65625 53.1875 79.882812 52.816406 80.082031 C 52.375 80.328125 51.933594 80.578125 51.496094 80.832031 C 51.167969 81.019531 50.835938 81.195312 50.511719 81.386719 C 50.507812 81.390625 50.503906 81.394531 50.5 81.394531 C 50.476562 81.40625 50.457031 81.421875 50.433594 81.433594 C 50.347656 81.488281 50.261719 81.527344 50.175781 81.582031 L 50.175781 81.585938 L 50.960938 82.890625 L 73.257812 120.019531 C 73.691406 119.757812 74.136719 119.515625 74.582031 119.277344 C 75.03125 119.035156 75.484375 118.808594 75.9375 118.59375 C 79.089844 117.085938 82.476562 116.132812 85.949219 115.777344 C 86.453125 115.726562 86.957031 115.6875 87.464844 115.660156 C 87.96875 115.632812 88.476562 115.609375 88.980469 115.609375 L 88.980469 70.757812 C 88.476562 70.757812 87.972656 70.78125 87.46875 70.789062 Z M 87.46875 70.789062 "/>
<path style=" stroke:none;fill-rule:nonzero;fill:rgb(30.19608%,35.294119%,19.215687%);fill-opacity:1;" d="M 164.105469 142.496094 C 164.082031 142.09375 164.058594 141.695312 164.03125 141.289062 C 164.019531 141.085938 164.007812 140.886719 163.992188 140.683594 C 163.960938 140.210938 163.917969 139.738281 163.875 139.261719 C 163.867188 139.140625 163.855469 139.019531 163.84375 138.894531 C 163.792969 138.363281 163.734375 137.835938 163.671875 137.308594 C 163.667969 137.265625 163.664062 137.222656 163.660156 137.179688 L 163.652344 137.121094 C 163.582031 136.550781 163.507812 135.980469 163.425781 135.410156 L 163.417969 135.355469 C 162.902344 131.773438 162.128906 128.230469 161.109375 124.753906 C 161.101562 124.730469 161.09375 124.707031 161.085938 124.6875 C 160.925781 124.144531 160.757812 123.605469 160.589844 123.070312 C 160.566406 123 160.542969 122.929688 160.519531 122.855469 C 160.359375 122.371094 160.199219 121.886719 160.03125 121.40625 L 159.898438 121.015625 C 159.75 120.597656 159.597656 120.179688 159.445312 119.761719 C 159.367188 119.5625 159.292969 119.363281 159.214844 119.167969 C 159.085938 118.820312 158.949219 118.476562 158.8125 118.136719 C 158.703125 117.859375 158.59375 117.589844 158.484375 117.324219 C 158.375 117.054688 158.261719 116.789062 158.148438 116.523438 C 158.003906 116.183594 157.851562 115.839844 157.703125 115.503906 C 157.617188 115.3125 157.53125 115.121094 157.445312 114.925781 C 157.261719 114.523438 157.070312 114.117188 156.882812 113.714844 C 156.820312 113.59375 156.761719 113.46875 156.703125 113.347656 C 156.480469 112.886719 156.253906 112.425781 156.023438 111.96875 C 155.992188 111.90625 155.957031 111.84375 155.925781 111.78125 C 155.667969 111.277344 155.402344 110.773438 155.136719 110.273438 C 155.125 110.257812 155.117188 110.238281 155.105469 110.222656 C 153.804688 107.824219 152.378906 105.5 150.828125 103.257812 L 117.835938 136.355469 C 118.585938 138.574219 119.070312 140.859375 119.308594 143.164062 L 164.132812 143.164062 C 164.121094 142.941406 164.113281 142.714844 164.105469 142.496094 Z M 164.105469 142.496094 "/>
<path style=" stroke:none;fill-rule:nonzero;fill:rgb(41.960785%,64.313728%,22.745098%);fill-opacity:1;" d="M 119.484375 146.203125 C 119.484375 146.710938 119.4375 147.21875 119.410156 147.726562 C 119.386719 148.234375 119.378906 148.742188 119.324219 149.246094 C 118.75 155.089844 116.503906 160.792969 112.585938 165.582031 C 112.269531 165.972656 111.910156 166.335938 111.566406 166.714844 C 111.226562 167.085938 110.910156 167.476562 110.550781 167.839844 L 142.164062 199.550781 C 142.523438 199.191406 142.863281 198.820312 143.210938 198.453125 C 143.5625 198.085938 143.921875 197.726562 144.261719 197.351562 C 146.597656 194.8125 148.738281 192.152344 150.664062 189.390625 C 150.742188 189.277344 150.8125 189.171875 150.890625 189.0625 C 151.125 188.726562 151.351562 188.382812 151.585938 188.039062 C 151.785156 187.734375 151.988281 187.429688 152.183594 187.121094 C 152.28125 186.972656 152.378906 186.820312 152.46875 186.671875 C 159.722656 175.25 163.601562 162.304688 164.125 149.246094 C 164.144531 148.738281 164.15625 148.230469 164.164062 147.722656 C 164.175781 147.21875 164.1875 146.710938 164.1875 146.203125 Z M 119.484375 146.203125 "/>
<path style=" stroke:none;fill-rule:nonzero;fill:rgb(25.882354%,25.490198%,26.274511%);fill-opacity:1;" d="M 177.472656 57.4375 C 169.292969 49.234375 156.03125 49.234375 147.851562 57.4375 C 141.328125 63.980469 140.023438 73.765625 143.910156 81.621094 L 98.28125 127.394531 C 90.449219 123.496094 80.695312 124.800781 74.167969 131.347656 C 65.988281 139.550781 65.992188 152.855469 74.167969 161.0625 C 82.351562 169.265625 95.613281 169.261719 103.792969 161.0625 C 110.320312 154.515625 111.621094 144.730469 107.734375 136.875 L 153.363281 91.105469 C 161.195312 95.003906 170.945312 93.695312 177.472656 87.148438 C 185.652344 78.949219 185.652344 65.644531 177.472656 57.4375 Z M 177.472656 57.4375 "/>
</g>
</svg>
