<svg xmlns="http://www.w3.org/2000/svg" width="430" height="430" style="width:100%;height:100%;transform:translate3d(0,0,0);content-visibility:visible" viewBox="0 0 430 430"><defs><clipPath id="a"><path d="M0 0h430v430H0z"/></clipPath><clipPath id="c"><path d="M0 0h430v430H0z"/></clipPath><clipPath id="b"><path d="M0 0h430v430H0z"/></clipPath></defs><g fill="none" clip-path="url(#a)"><g stroke-linecap="round" stroke-linejoin="round" stroke-width="12" clip-path="url(#b)" style="display:block"><g stroke="#121331" style="display:block"><path d="M384.185 84.322c0 82.882 18.806 220.205-169.187 310.678C27.005 304.527 45.811 167.204 45.811 84.312 100.034 76.515 214.998 35 214.998 35s114.964 41.515 169.187 49.322" class="primary"/><path d="M384.185 84.322c0 82.882 18.806 220.205-169.187 310.678C27.005 304.527 45.811 167.204 45.811 84.312 100.034 76.515 214.998 35 214.998 35s114.964 41.515 169.187 49.322" class="primary"/></g><path stroke="#08A88A" d="M20.48-35H-6.688a17.534 17.534 0 0 0-17.533 17.532 17.53 17.53 0 0 0 5.132 12.402A17.5 17.5 0 0 0-6.688.065H6.74a17.476 17.476 0 0 1 17.481 17.532A17.43 17.43 0 0 1 6.922 35l-30.623-.273" class="secondary" style="display:block" transform="translate(285.22 205)"/><path stroke="#08A88A" d="M23.058 35h-46.116v-70" class="secondary" style="display:block" transform="translate(217.905 205)"/><path stroke="#08A88A" d="M0 35v-70m-28.194 0h56.388" class="secondary" style="display:block" transform="translate(141.194 205)"/><path stroke="#08A88A" d="M0 0" class="secondary" style="display:block" transform="translate(285.22 205)"/><path stroke="#08A88A" d="M0 0" class="secondary" style="display:block" transform="translate(217.905 205)"/><path stroke="#08A88A" d="M0 0" class="secondary" style="display:block" transform="translate(141.194 205)"/></g><g clip-path="url(#c)" style="display:none"><path class="primary" style="display:none"/><path class="primary" style="display:none"/><path class="secondary" style="display:none"/><path class="secondary" style="display:none"/><path class="secondary" style="display:none"/></g></g></svg>